<svg width="624" height="336" xmlns="http://www.w3.org/2000/svg" xmlns:xlink="http://www.w3.org/1999/xlink" overflow="hidden"><defs><clipPath id="clip0"><rect x="0" y="0" width="624" height="336"/></clipPath><clipPath id="clip1"><rect x="462" y="102" width="36" height="33"/></clipPath><clipPath id="clip2"><rect x="462" y="102" width="36" height="33"/></clipPath><clipPath id="clip3"><rect x="462" y="102" width="36" height="33"/></clipPath><clipPath id="clip4"><rect x="145" y="103" width="36" height="34"/></clipPath><clipPath id="clip5"><rect x="145" y="103" width="36" height="34"/></clipPath><clipPath id="clip6"><rect x="145" y="103" width="36" height="34"/></clipPath><clipPath id="clip7"><rect x="264" y="100" width="35" height="34"/></clipPath><clipPath id="clip8"><rect x="264" y="100" width="35" height="34"/></clipPath><clipPath id="clip9"><rect x="264" y="100" width="35" height="34"/></clipPath><clipPath id="clip10"><rect x="46" y="10" width="36" height="36"/></clipPath><clipPath id="clip11"><rect x="46" y="10" width="36" height="36"/></clipPath><clipPath id="clip12"><rect x="46" y="10" width="36" height="36"/></clipPath><clipPath id="clip13"><rect x="569" y="15" width="18" height="19"/></clipPath><clipPath id="clip14"><rect x="569" y="15" width="18" height="19"/></clipPath><clipPath id="clip15"><rect x="569" y="15" width="18" height="19"/></clipPath></defs><g clip-path="url(#clip0)"><rect x="0" y="0" width="624" height="336" fill="#FFFFFF"/><path d="M35.5001 70.8336C35.5001 62.3651 42.3651 55.5001 50.8336 55.5001L596.167 55.5001C604.635 55.5001 611.5 62.3651 611.5 70.8336L611.5 132.167C611.5 140.635 604.635 147.5 596.167 147.5L50.8336 147.5C42.3651 147.5 35.5001 140.635 35.5001 132.167Z" stroke="#000000" stroke-width="1.33333" stroke-miterlimit="8" stroke-dasharray="5.33333 4" fill="none" fill-rule="evenodd"/><rect x="6.50005" y="77.5001" width="58" height="25" stroke="#000000" stroke-width="1.33333" stroke-miterlimit="8" fill="#FFFFFF"/><text font-family="Arial,Arial_MSFontService,sans-serif" font-weight="400" font-size="13" transform="translate(13.0006 94)">Thinker</text><path d="M248.5 278.833C248.5 275.888 250.888 273.5 253.833 273.5L339.167 273.5C342.112 273.5 344.5 275.888 344.5 278.833L344.5 300.167C344.5 303.112 342.112 305.5 339.167 305.5L253.833 305.5C250.888 305.5 248.5 303.112 248.5 300.167Z" stroke="#AD500D" stroke-width="1.33333" stroke-miterlimit="8" fill="#EC7016" fill-rule="evenodd"/><text font-family="Arial,Arial_MSFontService,sans-serif" font-weight="400" font-size="15" transform="translate(272.082 294)">Worker</text><rect x="70.5001" y="73.5001" width="83" height="15" stroke="#000000" stroke-width="1.32283" stroke-miterlimit="8" fill="#E5DEDB"/><text font-family="Consolas,Consolas_MSFontService,sans-serif" font-weight="700" font-size="12" transform="translate(91.7385 84)">Reader</text><rect x="182.5" y="126.5" width="84" height="15" stroke="#000000" stroke-width="1.32283" stroke-miterlimit="8" fill="#E5DEDB"/><text font-family="Consolas,Consolas_MSFontService,sans-serif" font-weight="700" font-size="12" transform="translate(194.349 137)">Submitter</text><rect x="373.5" y="126.5" width="83" height="15" stroke="#000000" stroke-width="1.32283" stroke-miterlimit="8" fill="#E5DEDB"/><text font-family="Consolas,Consolas_MSFontService,sans-serif" font-weight="700" font-size="12" transform="translate(387.924 137)">Recorder</text><rect x="462.5" y="65.5001" width="84" height="15" stroke="#000000" stroke-width="1.32283" stroke-miterlimit="8" fill="#E5DEDB"/><text font-family="Consolas,Consolas_MSFontService,sans-serif" font-weight="700" font-size="12" transform="translate(474.567 77)">Processor</text><path d="M85.5001 193.833C85.5001 190.888 87.8879 188.5 90.8334 188.5L202.167 188.5C205.112 188.5 207.5 190.888 207.5 193.833L207.5 215.167C207.5 218.112 205.112 220.5 202.167 220.5L90.8334 220.5C87.8879 220.5 85.5001 218.112 85.5001 215.167Z" stroke="#A93217" stroke-width="1.33333" stroke-miterlimit="8" fill="#E64823" fill-rule="evenodd"/><text font-family="Arial,Arial_MSFontService,sans-serif" font-weight="400" font-size="15" transform="translate(107.547 209)">Proxy Store<tspan font-family="Consolas,Consolas_MSFontService,sans-serif" font-size="9" x="-48.5786" y="-87">Cache </tspan><tspan font-family="Consolas,Consolas_MSFontService,sans-serif" font-size="9" x="-48.5786" y="-76">inputs</tspan><tspan font-family="Consolas,Consolas_MSFontService,sans-serif" font-size="9" x="65.4704" y="93">Access Inputs</tspan></text><path d="M432.5 192.833C432.5 189.888 434.888 187.5 437.833 187.5L549.167 187.5C552.112 187.5 554.5 189.888 554.5 192.833L554.5 214.167C554.5 217.112 552.112 219.5 549.167 219.5L437.833 219.5C434.888 219.5 432.5 217.112 432.5 214.167Z" stroke="#A93217" stroke-width="1.33333" stroke-miterlimit="8" fill="#E64823" fill-rule="evenodd"/><text font-family="Arial,Arial_MSFontService,sans-serif" font-weight="400" font-size="15" transform="translate(454.568 208)">Proxy Store<tspan font-family="Consolas,Consolas_MSFontService,sans-serif" font-size="9" x="-101.954" y="92">Cache Results</tspan></text><g clip-path="url(#clip1)"><g clip-path="url(#clip2)"><g clip-path="url(#clip3)"><path d="M7.76188 10.1131C7.49231 9.84576 7.49052 9.41043 7.75789 9.14086 7.75919 9.13956 7.76057 9.13818 7.76188 9.13688L9.13688 7.76188C9.40644 7.49231 9.84356 7.49231 10.1131 7.76188 10.3827 8.03144 10.3827 8.46856 10.1131 8.73812L8.73812 10.1131C8.47076 10.3827 8.03543 10.3845 7.76586 10.1171 7.76456 10.1158 7.76318 10.1144 7.76188 10.1131ZM6.67562 7.76188C6.40824 7.49231 5.97294 7.49052 5.70336 7.75789 5.70203 7.75919 5.7007 7.76057 5.69938 7.76188L4.32438 9.13688C4.05479 9.40424 4.053 9.83957 4.32039 10.1091 4.32171 10.1104 4.32304 10.1118 4.32438 10.1131 4.59176 10.3827 5.02705 10.3845 5.29664 10.1171 5.29797 10.1158 5.2993 10.1144 5.30062 10.1131L6.67562 8.73812C6.94519 8.47076 6.94698 8.03543 6.67961 7.76586 6.67829 7.76456 6.67696 7.76318 6.67562 7.76188ZM31.625 16.5 31.625 26.8125C31.625 27.1922 31.3172 27.5 30.9375 27.5L26.8125 27.5C26.4328 27.5 26.125 27.1922 26.125 26.8125L26.125 16.5C26.125 14.9812 27.3562 13.75 28.875 13.75 30.3938 13.75 31.625 14.9812 31.625 16.5ZM30.25 16.5C30.25 15.7406 29.6344 15.125 28.875 15.125 28.1156 15.125 27.5 15.7406 27.5 16.5L27.5 26.125 30.25 26.125ZM26.125 10.3125C26.125 8.79374 27.3562 7.5625 28.875 7.5625 30.3938 7.5625 31.625 8.79374 31.625 10.3125 31.625 11.8313 30.3938 13.0625 28.875 13.0625 27.3562 13.0625 26.125 11.8313 26.125 10.3125ZM27.5 10.3125C27.5 11.0719 28.1156 11.6875 28.875 11.6875 29.6344 11.6875 30.25 11.0719 30.25 10.3125 30.25 9.55309 29.6344 8.9375 28.875 8.9375 28.1156 8.9375 27.5 9.55309 27.5 10.3125ZM25.4375 16.5 25.4375 26.8125C25.4375 27.1922 25.1297 27.5 24.75 27.5L20.625 27.5C20.2453 27.5 19.9375 27.1922 19.9375 26.8125L19.9375 16.5C19.9375 14.9812 21.1687 13.75 22.6875 13.75 24.2063 13.75 25.4375 14.9812 25.4375 16.5ZM24.0625 16.5C24.0625 15.7406 23.4469 15.125 22.6875 15.125 21.9281 15.125 21.3125 15.7406 21.3125 16.5L21.3125 26.125 24.0625 26.125ZM25.4375 10.3125C25.4375 11.8313 24.2063 13.0625 22.6875 13.0625 21.1687 13.0625 19.9375 11.8313 19.9375 10.3125 19.9375 8.79374 21.1687 7.5625 22.6875 7.5625 24.2063 7.5625 25.4375 8.79374 25.4375 10.3125ZM24.0625 10.3125C24.0625 9.55309 23.4469 8.9375 22.6875 8.9375 21.9281 8.9375 21.3125 9.55309 21.3125 10.3125 21.3125 11.0719 21.9281 11.6875 22.6875 11.6875 23.4469 11.6875 24.0625 11.0719 24.0625 10.3125ZM19.25 16.5 19.25 26.8125C19.25 27.1922 18.9422 27.5 18.5625 27.5L2.0625 27.5C1.68281 27.5 1.375 27.1922 1.375 26.8125 1.375 26.4328 1.68281 26.125 2.0625 26.125L2.0625 19.25C1.68281 19.25 1.375 18.9422 1.375 18.5625 1.375 18.1828 1.68281 17.875 2.0625 17.875L6.1875 17.875 6.1875 12.375 2.75 12.375C2.37031 12.375 2.0625 12.0672 2.0625 11.6875L2.0625 6.1875C2.0625 5.8078 2.37031 5.5 2.75 5.5L11.6875 5.5C12.0672 5.5 12.375 5.8078 12.375 6.1875L12.375 11.6875C12.375 12.0672 12.0672 12.375 11.6875 12.375L7.5625 12.375 7.5625 17.875 13.75 17.875 13.75 16.5C13.75 14.9812 14.9812 13.75 16.5 13.75 18.0188 13.75 19.25 14.9812 19.25 16.5ZM3.4375 11 11 11 11 6.875 3.4375 6.875ZM3.4375 19.25 3.4375 23.375 13.75 23.375 13.75 19.25ZM3.4375 26.125 13.75 26.125 13.75 24.75 3.4375 24.75ZM17.875 16.5C17.875 15.7406 17.2594 15.125 16.5 15.125 15.7406 15.125 15.125 15.7406 15.125 16.5L15.125 26.125 17.875 26.125ZM19.25 10.3125C19.25 11.8313 18.0188 13.0625 16.5 13.0625 14.9812 13.0625 13.75 11.8313 13.75 10.3125 13.75 8.79374 14.9812 7.5625 16.5 7.5625 18.0188 7.5625 19.25 8.79374 19.25 10.3125ZM17.875 10.3125C17.875 9.55309 17.2594 8.9375 16.5 8.9375 15.7406 8.9375 15.125 9.55309 15.125 10.3125 15.125 11.0719 15.7406 11.6875 16.5 11.6875 17.2594 11.6875 17.875 11.0719 17.875 10.3125Z" transform="matrix(-1.09091 0 0 1 498 102)"/></g></g></g><g clip-path="url(#clip4)"><g clip-path="url(#clip5)"><g clip-path="url(#clip6)"><path d="M7.99708 10.4196C7.71935 10.1441 7.7175 9.6956 7.99297 9.41786 7.99432 9.41651 7.99574 9.4151 7.99708 9.41375L9.41375 7.99708C9.69149 7.71935 10.1418 7.71935 10.4196 7.99708 10.6973 8.27482 10.6973 8.72518 10.4196 9.00292L9.00292 10.4196C8.72745 10.6973 8.27893 10.6992 8.00119 10.4237 7.99985 10.4223 7.99843 10.4209 7.99708 10.4196ZM6.87792 7.99708C6.60243 7.71935 6.15394 7.7175 5.87619 7.99297 5.87482 7.99432 5.87344 7.99574 5.87208 7.99708L4.45542 9.41375C4.17766 9.68922 4.17582 10.1377 4.45131 10.4155 4.45268 10.4168 4.45404 10.4182 4.45542 10.4196 4.7309 10.6973 5.17939 10.6992 5.45714 10.4237 5.45852 10.4223 5.45989 10.4209 5.46125 10.4196L6.87792 9.00292C7.15565 8.72745 7.1575 8.27893 6.88203 8.00119 6.88066 7.99985 6.87929 7.99843 6.87792 7.99708ZM32.5833 17 32.5833 27.625C32.5833 28.0162 32.2662 28.3333 31.875 28.3333L27.625 28.3333C27.2338 28.3333 26.9167 28.0162 26.9167 27.625L26.9167 17C26.9167 15.4352 28.1852 14.1667 29.75 14.1667 31.3148 14.1667 32.5833 15.4352 32.5833 17ZM31.1667 17C31.1667 16.2176 30.5324 15.5833 29.75 15.5833 28.9676 15.5833 28.3333 16.2176 28.3333 17L28.3333 26.9167 31.1667 26.9167ZM26.9167 10.625C26.9167 9.06022 28.1852 7.79167 29.75 7.79167 31.3148 7.79167 32.5833 9.06022 32.5833 10.625 32.5833 12.1898 31.3148 13.4583 29.75 13.4583 28.1852 13.4583 26.9167 12.1898 26.9167 10.625ZM28.3333 10.625C28.3333 11.4074 28.9676 12.0417 29.75 12.0417 30.5324 12.0417 31.1667 11.4074 31.1667 10.625 31.1667 9.84258 30.5324 9.20833 29.75 9.20833 28.9676 9.20833 28.3333 9.84258 28.3333 10.625ZM26.2083 17 26.2083 27.625C26.2083 28.0162 25.8912 28.3333 25.5 28.3333L21.25 28.3333C20.8588 28.3333 20.5417 28.0162 20.5417 27.625L20.5417 17C20.5417 15.4352 21.8102 14.1667 23.375 14.1667 24.9398 14.1667 26.2083 15.4352 26.2083 17ZM24.7917 17C24.7917 16.2176 24.1574 15.5833 23.375 15.5833 22.5926 15.5833 21.9583 16.2176 21.9583 17L21.9583 26.9167 24.7917 26.9167ZM26.2083 10.625C26.2083 12.1898 24.9398 13.4583 23.375 13.4583 21.8102 13.4583 20.5417 12.1898 20.5417 10.625 20.5417 9.06022 21.8102 7.79167 23.375 7.79167 24.9398 7.79167 26.2083 9.06022 26.2083 10.625ZM24.7917 10.625C24.7917 9.84258 24.1574 9.20833 23.375 9.20833 22.5926 9.20833 21.9583 9.84258 21.9583 10.625 21.9583 11.4074 22.5926 12.0417 23.375 12.0417 24.1574 12.0417 24.7917 11.4074 24.7917 10.625ZM19.8333 17 19.8333 27.625C19.8333 28.0162 19.5162 28.3333 19.125 28.3333L2.125 28.3333C1.7338 28.3333 1.41667 28.0162 1.41667 27.625 1.41667 27.2338 1.7338 26.9167 2.125 26.9167L2.125 19.8333C1.7338 19.8333 1.41667 19.5162 1.41667 19.125 1.41667 18.7338 1.7338 18.4167 2.125 18.4167L6.375 18.4167 6.375 12.75 2.83333 12.75C2.44213 12.75 2.125 12.4329 2.125 12.0417L2.125 6.375C2.125 5.98379 2.44213 5.66667 2.83333 5.66667L12.0417 5.66667C12.4329 5.66667 12.75 5.98379 12.75 6.375L12.75 12.0417C12.75 12.4329 12.4329 12.75 12.0417 12.75L7.79167 12.75 7.79167 18.4167 14.1667 18.4167 14.1667 17C14.1667 15.4352 15.4352 14.1667 17 14.1667 18.5648 14.1667 19.8333 15.4352 19.8333 17ZM3.54167 11.3333 11.3333 11.3333 11.3333 7.08333 3.54167 7.08333ZM3.54167 19.8333 3.54167 24.0833 14.1667 24.0833 14.1667 19.8333ZM3.54167 26.9167 14.1667 26.9167 14.1667 25.5 3.54167 25.5ZM18.4167 17C18.4167 16.2176 17.7824 15.5833 17 15.5833 16.2176 15.5833 15.5833 16.2176 15.5833 17L15.5833 26.9167 18.4167 26.9167ZM19.8333 10.625C19.8333 12.1898 18.5648 13.4583 17 13.4583 15.4352 13.4583 14.1667 12.1898 14.1667 10.625 14.1667 9.06022 15.4352 7.79167 17 7.79167 18.5648 7.79167 19.8333 9.06022 19.8333 10.625ZM18.4167 10.625C18.4167 9.84258 17.7824 9.20833 17 9.20833 16.2176 9.20833 15.5833 9.84258 15.5833 10.625 15.5833 11.4074 16.2176 12.0417 17 12.0417 17.7824 12.0417 18.4167 11.4074 18.4167 10.625Z" transform="matrix(-1.05882 0 0 1 181 103)"/></g></g></g><g clip-path="url(#clip7)"><g clip-path="url(#clip8)"><g clip-path="url(#clip9)"><path d="M19.9101 25.5411 14.3851 25.5411C13.47 25.5411 12.7289 24.7961 12.7289 23.885L12.7289 8.41497C12.7289 6.8916 13.9693 5.65379 15.4901 5.65379L18.8051 5.65379C20.3284 5.65379 21.5662 6.89425 21.5662 8.41497L21.5662 23.885C21.5702 24.7961 20.8251 25.5411 19.9101 25.5411ZM15.4901 6.75614C14.575 6.75614 13.8339 7.50122 13.8339 8.41231L13.8339 23.8823C13.8339 24.1878 14.0822 24.4335 14.3851 24.4335L19.9101 24.4335C20.2155 24.4335 20.4612 24.1851 20.4612 23.8823L20.4612 8.41231C20.4612 7.49724 19.7162 6.75614 18.8051 6.75614Z" transform="matrix(1.02941 0 0 1 264 100)"/><path d="M17.1499 17.8061C15.9334 17.8061 14.9399 16.8127 14.9399 15.5961 14.9399 14.3796 15.9334 13.3861 17.1499 13.3861 18.3665 13.3861 19.3599 14.3796 19.3599 15.5961 19.3599 16.8167 18.3665 17.8061 17.1499 17.8061ZM17.1499 14.4911C16.5416 14.4911 16.0449 14.9878 16.0449 15.5961 16.0449 16.2044 16.5416 16.7011 17.1499 16.7011 17.7582 16.7011 18.2549 16.2044 18.2549 15.5961 18.2549 14.9865 17.7582 14.4911 17.1499 14.4911Z" transform="matrix(1.02941 0 0 1 264 100)"/><path d="M17.1499 23.3311C15.9334 23.3311 14.9399 22.3377 14.9399 21.1211 14.9399 19.9046 15.9334 18.9111 17.1499 18.9111 18.3665 18.9111 19.3599 19.9046 19.3599 21.1211 19.3599 22.3377 18.3665 23.3311 17.1499 23.3311ZM17.1499 20.0161C16.5416 20.0161 16.0449 20.5128 16.0449 21.1211 16.0449 21.7294 16.5416 22.2261 17.1499 22.2261 17.7582 22.2261 18.2549 21.7294 18.2549 21.1211 18.2549 20.5115 17.7582 20.0161 17.1499 20.0161Z" transform="matrix(1.02941 0 0 1 264 100)"/><path d="M17.1499 12.2811C15.9334 12.2811 14.9399 11.2877 14.9399 10.0711 14.9399 8.85459 15.9334 7.86114 17.1499 7.86114 18.3665 7.86114 19.3599 8.85459 19.3599 10.0711 19.3599 11.2877 18.3665 12.2811 17.1499 12.2811ZM17.1499 8.96614C16.5416 8.96614 16.0449 9.46285 16.0449 10.0711 16.0449 10.6794 16.5416 11.1761 17.1499 11.1761 17.7582 11.1761 18.2549 10.6794 18.2549 10.0711 18.2549 9.46152 17.7582 8.96614 17.1499 8.96614Z" transform="matrix(1.02941 0 0 1 264 100)"/><path d="M16.5951 32.1711C16.2896 32.1711 16.0439 31.9228 16.0439 31.62L16.0452 24.99C16.0452 24.6845 16.2936 24.4388 16.5964 24.4388 16.9019 24.4388 17.1476 24.6872 17.1476 24.99L17.1462 31.62C17.1502 31.9228 16.9019 32.1711 16.5951 32.1711Z" transform="matrix(1.02941 0 0 1 264 100)"/><path d="M21.0151 12.835C20.8716 12.835 20.7335 12.7805 20.6246 12.6716 20.4108 12.4578 20.4108 12.1072 20.6246 11.8894L23.5491 8.96482 21.0164 8.96482C20.711 8.96482 20.4652 8.71646 20.4652 8.41365 20.4652 8.11084 20.7136 7.86248 21.0164 7.86248L24.8826 7.86248C25.107 7.86248 25.3076 7.99795 25.3926 8.20248 25.4776 8.40967 25.4298 8.6474 25.273 8.80411L21.4069 12.6716C21.298 12.7805 21.1585 12.835 21.0151 12.835Z" transform="matrix(1.02941 0 0 1 264 100)"/><path d="M21.0151 18.36C20.8716 18.36 20.7335 18.3055 20.6246 18.1966 20.4108 17.9828 20.4108 17.6322 20.6246 17.4144L23.5491 14.4898 21.0164 14.4898C20.711 14.4898 20.4652 14.2415 20.4652 13.9387 20.4652 13.6332 20.7136 13.3875 21.0164 13.3875L24.8826 13.3875C25.107 13.3875 25.3076 13.5229 25.3926 13.7275 25.4776 13.9347 25.4298 14.1724 25.273 14.3291L21.4069 18.1966C21.298 18.3055 21.1585 18.36 21.0151 18.36Z" transform="matrix(1.02941 0 0 1 264 100)"/><path d="M21.0151 23.885C20.8716 23.885 20.7335 23.8305 20.6246 23.7216 20.4108 23.5078 20.4108 23.1572 20.6246 22.9394L23.5491 20.0148 21.0164 20.0148C20.711 20.0148 20.4652 19.7665 20.4652 19.4636 20.4652 19.1582 20.7136 18.9125 21.0164 18.9125L24.8826 18.9125C25.107 18.9125 25.3076 19.0479 25.3926 19.2525 25.4776 19.4597 25.4298 19.6974 25.273 19.8541L21.4069 23.7216C21.298 23.8305 21.1585 23.885 21.0151 23.885Z" transform="matrix(1.02941 0 0 1 264 100)"/><path d="M13.2801 12.835C13.1366 12.835 12.9985 12.7805 12.8896 12.6716L9.02346 8.80278C8.86674 8.64606 8.81893 8.40831 8.90393 8.20115 8.98893 7.99399 9.18948 7.86115 9.41393 7.86115L13.2801 7.86115C13.5855 7.86115 13.8312 8.10951 13.8312 8.41232 13.8312 8.71513 13.5829 8.9635 13.2801 8.9635L10.7473 8.9635 13.6719 11.888C13.8857 12.1019 13.8857 12.4525 13.6719 12.6703 13.563 12.7806 13.4235 12.835 13.2801 12.835Z" transform="matrix(1.02941 0 0 1 264 100)"/><path d="M13.2801 18.36C13.1366 18.36 12.9985 18.3055 12.8896 18.1966L9.02346 14.3278C8.86674 14.1711 8.81893 13.9333 8.90393 13.7261 8.98893 13.519 9.18948 13.3862 9.41393 13.3862L13.2801 13.3862C13.5855 13.3862 13.8312 13.6345 13.8312 13.9373 13.8312 14.2428 13.5829 14.4885 13.2801 14.4885L10.7473 14.4885 13.6719 17.413C13.8857 17.6269 13.8857 17.9775 13.6719 18.1953 13.563 18.3055 13.4235 18.36 13.2801 18.36Z" transform="matrix(1.02941 0 0 1 264 100)"/><path d="M13.2801 23.885C13.1366 23.885 12.9985 23.8305 12.8896 23.7216L9.02346 19.8528C8.86674 19.6961 8.81893 19.4583 8.90393 19.2512 8.98893 19.044 9.18948 18.9111 9.41393 18.9111L13.2801 18.9111C13.5855 18.9111 13.8312 19.1595 13.8312 19.4623 13.8312 19.7678 13.5829 20.0135 13.2801 20.0135L10.7473 20.0135 13.6719 22.938C13.8857 23.1519 13.8857 23.5025 13.6719 23.7203 13.563 23.8305 13.4235 23.885 13.2801 23.885Z" transform="matrix(1.02941 0 0 1 264 100)"/></g></g></g><path d="M0-1 239.425-1 239.425 46.0692 237.425 46.0692 237.425 0 238.425 1 0 1ZM242.425 44.7359 238.425 52.7359 234.425 44.7359Z" fill="#595959" transform="matrix(-1 1.22465e-16 1.22465e-16 1 462.425 73)"/><rect x="278.5" y="56.5001" width="155" height="15" stroke="#9C6A6A" stroke-width="1.32283" stroke-miterlimit="8" fill="#FFFFFF" fill-opacity="0.901961"/><text font-family="Consolas,Consolas_MSFontService,sans-serif" font-weight="400" font-size="12" transform="translate(295.844 67)">Minimum Similarity</text><path d="M0-1 46.475-1 46.475 64.0511 44.475 64.0511 44.475 0 45.475 1 0 1ZM49.475 62.7178 45.475 70.7178 41.475 62.7178Z" fill="#595959" transform="matrix(1.83697e-16 1 1 -1.83697e-16 112 88)"/><path d="M0-1 49.15-1 49.15 46.0692 47.15 46.0692 47.15 0 48.15 1 0 1ZM52.15 44.7359 48.15 52.7359 44.15 44.7359Z" fill="#595959" transform="matrix(1 0 0 -1 456 132.736)"/><path d="M0-1 54.3773-1 54.3773 0.000209974 53.3773-0.99979 100.088-0.99979 100.088 1.00021 52.3773 1.00021 52.3773 0 53.3773 1 0 1ZM98.7546-3.99979 106.755 0.000209974 98.7546 4.00021Z" fill="#CE8D3E" transform="matrix(-1.83697e-16 -1 -1 1.83697e-16 525 186.755)"/><rect x="115.5" y="92.5001" width="82" height="15" stroke="#9C6A6A" stroke-width="1.32283" stroke-miterlimit="8" fill="#FFFFFF" fill-opacity="0.901961"/><text font-family="Consolas,Consolas_MSFontService,sans-serif" font-weight="400" font-size="12" transform="translate(119.472 104)">Ready Queue</text><g clip-path="url(#clip10)"><g clip-path="url(#clip11)"><g clip-path="url(#clip12)"><path d="M52.84 13.96 52.84 42.04C52.84 42.2284 53.0116 42.4 53.2 42.4L74.8 42.4C74.9884 42.4 75.16 42.2284 75.16 42.04L75.16 21.16C75.1642 21.0644 75.1248 20.9702 75.0588 20.9013L67.8587 13.7013C67.7898 13.6352 67.6956 13.5972 67.6 13.6L53.2 13.6C52.9609 13.6169 52.8414 13.8123 52.84 13.96ZM53.56 14.32 67.24 14.32 67.24 21.16C67.24 21.3484 67.4116 21.52 67.6 21.52L74.44 21.52 74.44 41.68 53.56 41.68ZM67.96 14.8262 73.9338 20.8001 67.96 20.8001Z"/></g></g></g><rect x="81.5001" y="17.5001" width="114" height="15" stroke="#9C6A6A" stroke-width="1.32283" stroke-miterlimit="8" fill="#FFFFFF" fill-opacity="0.901961"/><text font-family="Consolas,Consolas_MSFontService,sans-serif" font-weight="400" font-size="12" transform="translate(95.2324 28)">Full database</text><path d="M139.594 32 139.594 53.3028 112 53.3028 113 52.3028 113 65.939 111 65.939 111 51.3028 138.594 51.3028 137.594 52.3028 137.594 32ZM116 64.6057 112 72.6057 108 64.6057Z" fill="#595959"/><g clip-path="url(#clip13)"><g clip-path="url(#clip14)"><g clip-path="url(#clip15)"><path d="M3.42 1.98 3.42 16.02C3.42 16.1142 3.50578 16.2 3.6 16.2L14.4 16.2C14.4942 16.2 14.58 16.1142 14.58 16.02L14.58 5.58C14.5821 5.53219 14.5624 5.48508 14.5294 5.45063L10.9294 1.85063C10.8949 1.81758 10.8478 1.79859 10.8 1.8L3.6 1.8C3.48047 1.80844 3.4207 1.90617 3.42 1.98ZM3.78 2.16 10.62 2.16 10.62 5.58C10.62 5.67422 10.7058 5.76 10.8 5.76L14.22 5.76 14.22 15.84 3.78 15.84ZM10.98 2.41312 13.9669 5.40004 10.98 5.40004Z" transform="matrix(1 0 0 1.05556 569 15)"/></g></g></g><path d="M413.483 126 413.483 118.5 414.483 119.5 348.345 119.5 349.345 118.5 349.345 134.477 272.667 134.477 272.667 132.477 348.345 132.477 347.345 133.477 347.345 117.5 415.483 117.5 415.483 126ZM274 137.477 266 133.477 274 129.477Z" fill="#595959"/><rect x="289.5" y="111.5" width="65" height="15" stroke="#9C6A6A" stroke-width="1.32283" stroke-miterlimit="8" fill="#FFFFFF" fill-opacity="0.901961"/><text font-family="Consolas,Consolas_MSFontService,sans-serif" font-weight="400" font-size="12" transform="translate(295.093 122)">Governor</text><rect x="419.5" y="19.5001" width="145" height="15" stroke="#9C6A6A" stroke-width="1.32283" stroke-miterlimit="8" fill="#FFFFFF" fill-opacity="0.901961"/><text font-family="Consolas,Consolas_MSFontService,sans-serif" font-weight="400" font-size="12" transform="translate(432.169 30)">Screened Molecules</text><path d="M0-1 16.9223-1 16.9223 12.6973 15.9223 11.6973 25.1778 11.6973 25.1778 13.6973 14.9223 13.6973 14.9223 0 15.9223 1 0 1ZM23.8445 8.69732 31.8445 12.6973 23.8445 16.6973Z" fill="#595959" transform="matrix(-1.83697e-16 -1 -1 1.83697e-16 504.697 65.8445)"/><path d="M0-1 76.5882-1 76.5882 50.9068 75.5882 49.9068 94.5101 49.9068 94.5101 51.9068 74.5882 51.9068 74.5882 0 75.5882 1 0 1ZM93.1768 46.9068 101.177 50.9068 93.1768 54.9068Z" fill="#CE8D3E" transform="matrix(1.83697e-16 1 1 -1.83697e-16 95 86)"/><path d="M0-1 69.7671-1 69.7671 95.0985 67.7671 95.0985 67.7671 0 68.7671 1 0 1ZM72.7671 93.7651 68.7671 101.765 64.7671 93.7651Z" fill="#CE8D3E" transform="matrix(1.83697e-16 1 1 -1.83697e-16 146 220)"/><path d="M0-1 150.05-1 150.05 62.7238 148.05 62.7238 148.05 0 149.05 1 0 1ZM153.05 61.3904 149.05 69.3904 145.05 61.3904Z" fill="#CE8D3E" transform="matrix(1 0 0 -1 344 288.39)"/><rect x="407.5" y="89.5001" width="92" height="15" stroke="#9C6A6A" stroke-width="1.32283" stroke-miterlimit="8" fill="#FFFFFF" fill-opacity="0.901961"/><text font-family="Consolas,Consolas_MSFontService,sans-serif" font-weight="400" font-size="12" transform="translate(413.785 101)">Result Queue</text><path d="M0-1 25.557-1 25.557 79.1793 24.5571 78.1793 42.4473 78.1793 42.4473 80.1793 23.5571 80.1793 23.5571 0 24.5571 1 0 1ZM41.114 75.1793 49.114 79.1793 41.114 83.1793Z" fill="#E64823" transform="matrix(1.83697e-16 1 1 -1.83697e-16 224 141)"/><path d="M302 190.114 302 164.557 414.096 164.557 413.096 165.557 413.096 147.667 415.096 147.667 415.096 166.557 303 166.557 304 165.557 304 190.114ZM410.096 149 414.096 141 418.096 149Z" fill="#E64823"/><text font-family="Consolas,Consolas_MSFontService,sans-serif" font-weight="400" font-size="9" transform="translate(533.712 98)">Access, evict<tspan font-size="9" x="0" y="11">results</tspan></text><path d="M304.563 228.667 304.563 248.369 296 248.369 297 247.369 297 266.072 295 266.072 295 246.369 303.563 246.369 302.563 247.369 302.563 228.667ZM299.563 230 303.563 222 307.563 230ZM300 264.739 296 272.739 292 264.739Z" fill="#E64823"/><text font-family="Consolas,Consolas_MSFontService,sans-serif" font-weight="400" font-size="9" transform="translate(187.268 160)">Submit<tspan font-size="9" x="10.3333" y="11">task</tspan><tspan font-size="9" x="233.023" y="-2">Notify </tspan><tspan font-size="9" x="233.023" y="9">completion</tspan></text><path d="M0-1 5.75513-1 5.75513 70.7217 4.75513 69.7217 158.842 69.7217 158.842 71.7217 3.75513 71.7217 3.75513 0 4.75513 1 0 1ZM157.509 66.7217 165.509 70.7217 157.509 74.7217Z" fill="#CE8D3E" transform="matrix(-1 1.22465e-16 1.22465e-16 1 372.509 133)"/><path d="M242.5 195.833C242.5 192.888 244.888 190.5 247.833 190.5L359.167 190.5C362.112 190.5 364.5 192.888 364.5 195.833L364.5 217.167C364.5 220.112 362.112 222.5 359.167 222.5L247.833 222.5C244.888 222.5 242.5 220.112 242.5 217.167Z" stroke="#BC9404" stroke-width="1.33333" stroke-miterlimit="8" fill="#FFCA08" fill-rule="evenodd"/><text font-family="Arial,Arial_MSFontService,sans-serif" font-weight="400" font-size="15" transform="translate(263.728 211)">Task Server<tspan font-family="Consolas,Consolas_MSFontService,sans-serif" font-size="9" x="110.193" y="-29">Evict </tspan><tspan font-family="Consolas,Consolas_MSFontService,sans-serif" font-size="9" x="110.193" y="-18">inputs</tspan></text></g></svg>